<svg id="圖層_1" data-name="圖層 1" xmlns="http://www.w3.org/2000/svg" viewBox="0 0 164.51 187.3"><defs><style>.cls-1,.cls-3{fill:#eec591;}.cls-2{fill:none;}.cls-2,.cls-3{stroke:#f6efe3;stroke-miterlimit:10;}.cls-4{fill:#f6efe3;}</style></defs><circle class="cls-1" cx="82.96" cy="105.75" r="81.05"/><circle class="cls-2" cx="82.96" cy="105.75" r="81.05"/><path class="cls-3" d="M36.4,158.31c19.14-65.72,32.64-81.66,42-81,7.88.51,13.14,12.72,25,12,10.9-.66,14.38-11.41,21-12,8.84-.8,26,11.56,46,81.05" transform="translate(-19.99 -7.03)"/><path class="cls-1" d="M77.43,142.3c-4.41,0-8-6.51-8-14.51s3.6-14.51,8-14.51,8,6.51,8,14.51S81.84,142.3,77.43,142.3Z" transform="translate(-19.99 -7.03)"/><path class="cls-4" d="M77.43,113.78c4.07,0,7.51,6.42,7.51,14s-3.44,14-7.51,14-7.51-6.41-7.51-14,3.44-14,7.51-14m0-1c-4.7,0-8.51,6.72-8.51,15s3.81,15,8.51,15,8.51-6.72,8.51-15-3.81-15-8.51-15Z" transform="translate(-19.99 -7.03)"/><path class="cls-1" d="M128.46,142.3c-4.41,0-8-6.51-8-14.51s3.59-14.51,8-14.51,8,6.51,8,14.51S132.88,142.3,128.46,142.3Z" transform="translate(-19.99 -7.03)"/><path class="cls-4" d="M128.46,113.78c4.07,0,7.51,6.42,7.51,14s-3.44,14-7.51,14-7.5-6.41-7.5-14,3.43-14,7.5-14m0-1c-4.69,0-8.5,6.72-8.5,15s3.81,15,8.5,15,8.51-6.72,8.51-15-3.81-15-8.51-15Z" transform="translate(-19.99 -7.03)"/><polygon class="cls-1" points="70.13 157.28 83.38 145.82 96.63 157.28 70.13 157.28"/><path class="cls-4" d="M103.37,153.51l11.9,10.31H91.46l11.91-10.31m0-1.32L88.78,164.82H118l-14.59-12.63Z" transform="translate(-19.99 -7.03)"/><polygon class="cls-1" points="70.29 158.28 96.79 158.28 83.54 169.75 70.29 158.28"/><path class="cls-4" d="M115.43,165.82l-11.9,10.3-11.91-10.3h23.81m2.69-1H88.94l14.59,12.63,14.59-12.63Z" transform="translate(-19.99 -7.03)"/><path class="cls-1" d="M104.22,33.91c-3,0-9.34-4.09-15.41-9.95a54.66,54.66,0,0,1-8.57-10.29c-2.06-3.38-2.19-5.22-1.62-5.8a1.4,1.4,0,0,1,1-.34c3,0,9.34,4.09,15.41,10a54.66,54.66,0,0,1,8.57,10.29c2.06,3.39,2.19,5.22,1.62,5.81A1.4,1.4,0,0,1,104.22,33.91Z" transform="translate(-19.99 -7.03)"/><path class="cls-4" d="M79.66,8h0c2.43,0,8.39,3.37,15.06,9.81A54.32,54.32,0,0,1,103.21,28c1.9,3.13,2.05,4.82,1.69,5.2a1,1,0,0,1-.68.18c-2.43,0-8.39-3.37-15.06-9.81C80.77,15.51,78,9.19,79,8.21A1.09,1.09,0,0,1,79.66,8m0-1a1.87,1.87,0,0,0-1.4.49c-1.92,2,2.65,9.51,10.2,16.8,6.31,6.09,12.71,10.09,15.76,10.09a1.87,1.87,0,0,0,1.4-.49c1.92-2-2.65-9.51-10.21-16.8C89.11,11,82.71,7,79.66,7Z" transform="translate(-19.99 -7.03)"/><path class="cls-1" d="M105.06,34.12a1.9,1.9,0,0,1-1.52-.51c-.48-.66-.1-2.46,2.42-5.52a54.68,54.68,0,0,1,9.94-9c6.37-4.61,12.85-7.71,16.11-7.71a1.94,1.94,0,0,1,1.53.51c1.24,1.73-3.52,8.11-12.36,14.5C114.8,31,108.32,34.12,105.06,34.12Z" transform="translate(-19.99 -7.03)"/><path class="cls-4" d="M132,11.9h0a1.48,1.48,0,0,1,1.11.3c.8,1.1-2.8,7-12.25,13.8-6.2,4.49-12.7,7.62-15.82,7.62a1.51,1.51,0,0,1-1.12-.3c-.3-.43.08-2.08,2.4-4.91a54.38,54.38,0,0,1,9.85-8.89C122.39,15,128.9,11.9,132,11.9m0-1c-3.27,0-9.75,3-16.41,7.81-8.5,6.15-14.09,13-12.47,15.19a2.25,2.25,0,0,0,1.93.72c3.28,0,9.75-3,16.41-7.8,8.51-6.16,14.09-13,12.47-15.2A2.24,2.24,0,0,0,132,10.9Z" transform="translate(-19.99 -7.03)"/><text x="-19.99" y="-7.03"/><text x="-19.99" y="-7.03"/><text x="-19.99" y="-7.03"/></svg>