<svg id="圖層_1" data-name="圖層 1" xmlns="http://www.w3.org/2000/svg" viewBox="0 0 84.03 159.78"><defs><style>.cls-1,.cls-3{fill:#eec591;}.cls-2{fill:none;}.cls-2,.cls-3{stroke:#f6efe3;stroke-miterlimit:10;}.cls-4{fill:#f6efe3;}</style></defs><circle class="cls-1" cx="30.01" cy="87.39" r="29.51"/><circle class="cls-2" cx="30.01" cy="87.39" r="29.51"/><path class="cls-3" d="M20.17,117.9c7-23.92,11.89-29.72,15.3-29.5,2.87.19,4.79,4.63,9.11,4.37,4-.24,5.24-4.15,7.65-4.37,3.22-.29,9.47,4.21,16.76,29.5" transform="translate(-14.39 -13.94)"/><ellipse class="cls-1" cx="20.72" cy="92.86" rx="2.6" ry="4.96"/><path class="cls-4" d="M35.11,102.33c1,0,2.1,1.91,2.1,4.46s-1.11,4.47-2.1,4.47-2.1-1.91-2.1-4.47,1.11-4.46,2.1-4.46m0-1c-1.71,0-3.1,2.45-3.1,5.46s1.39,5.47,3.1,5.47,3.1-2.45,3.1-5.47-1.39-5.46-3.1-5.46Z" transform="translate(-14.39 -13.94)"/><path class="cls-1" d="M53.69,111.76c-1.41,0-2.6-2.27-2.6-5s1.19-5,2.6-5,2.59,2.27,2.59,5S55.09,111.76,53.69,111.76Z" transform="translate(-14.39 -13.94)"/><path class="cls-4" d="M53.69,102.33c1,0,2.09,1.91,2.09,4.46s-1.1,4.47-2.09,4.47-2.1-1.91-2.1-4.47,1.11-4.46,2.1-4.46m0-1c-1.71,0-3.1,2.45-3.1,5.46s1.39,5.47,3.1,5.47,3.09-2.45,3.09-5.47-1.38-5.46-3.09-5.46Z" transform="translate(-14.39 -13.94)"/><polygon class="cls-1" points="26.19 105.83 30.16 102.4 34.13 105.83 26.19 105.83"/><path class="cls-4" d="M44.55,117l2.63,2.27H41.92L44.55,117m0-1.32-5.31,4.59H49.86l-5.31-4.59Z" transform="translate(-14.39 -13.94)"/><polygon class="cls-1" points="26.25 106.83 34.19 106.83 30.22 110.27 26.25 106.83"/><path class="cls-4" d="M47.24,121.27l-2.63,2.28L42,121.27h5.26m2.68-1H39.3l5.31,4.6,5.31-4.6Z" transform="translate(-14.39 -13.94)"/><path class="cls-1" d="M44.86,72.3c-.84,0-3-1.24-5.39-3.53-2.95-2.85-3.93-5.09-3.7-5.41,0,0,0,0,.15,0,.84,0,3,1.23,5.39,3.53,3,2.85,3.93,5.08,3.7,5.41A.52.52,0,0,1,44.86,72.3Z" transform="translate(-14.39 -13.94)"/><path class="cls-4" d="M36.37,63.94A15.31,15.31,0,0,1,41,67.23a15.33,15.33,0,0,1,3.46,4.47,15.19,15.19,0,0,1-4.6-3.29,15.23,15.23,0,0,1-3.45-4.47m-.45-1.1a.69.69,0,0,0-.51.17c-.7.73,1,3.46,3.72,6.12,2.29,2.22,4.62,3.67,5.73,3.67a.71.71,0,0,0,.51-.17c.7-.73-1-3.47-3.71-6.12-2.3-2.22-4.63-3.67-5.74-3.67Z" transform="translate(-14.39 -13.94)"/><path class="cls-1" d="M45.17,72.38c-.24,0-.3-.06-.3-.06C44.69,72,46,69.9,49.3,67.49c2.61-1.89,4.77-2.75,5.68-2.75a.5.5,0,0,1,.3.06c.18.35-1.1,2.42-4.43,4.83C48.24,71.52,46.07,72.38,45.17,72.38Z" transform="translate(-14.39 -13.94)"/><path class="cls-4" d="M54.6,65.29a15.36,15.36,0,0,1-4.05,3.94,15.38,15.38,0,0,1-5,2.61,15.21,15.21,0,0,1,4.05-3.94,15.08,15.08,0,0,1,5-2.61M55,64.24c-1.19,0-3.55,1.09-6,2.85-3.1,2.24-5.13,4.71-4.54,5.53a.83.83,0,0,0,.7.26c1.19,0,3.55-1.09,6-2.84,3.1-2.24,5.13-4.72,4.54-5.54a.84.84,0,0,0-.7-.26Z" transform="translate(-14.39 -13.94)"/><text x="-14.39" y="-13.94"/><text x="-14.39" y="-13.94"/><text x="-14.39" y="-13.94"/></svg>